<?xml version="1.0" encoding="UTF-8"?>
<svg id="Layer_1" data-name="Layer 1" xmlns="http://www.w3.org/2000/svg" viewBox="0 0 512 512">
  <defs>
    <style>
      .cls-1 {
        fill: #f2eae7;
      }

      .cls-2 {
        fill: #f9f7f7;
      }

      .cls-3 {
        fill: #f8f3f2;
      }

      .cls-4 {
        fill: #ede2dd;
      }

      .cls-5 {
        fill: #ffe177;
      }

      .cls-6 {
        fill: #fbe372;
      }

      .cls-7 {
        fill: #8f8390;
      }

      .cls-8 {
        fill: #a59ca6;
      }

      .cls-9 {
        fill: #c8effe;
      }

      .cls-10 {
        fill: #dff6fd;
      }
    </style>
  </defs>
  <g>
    <path class="cls-10" d="m421.36,217.09v192.53c0,15.7-12.73,28.43-28.43,28.43H119.8c-15.7,0-28.43-12.73-28.43-28.43v-192.53c0-3.8,3.08-6.87,6.87-6.87h316.24c3.8,0,6.87,3.08,6.87,6.87Z"/>
    <path class="cls-9" d="m111.95,210.22v194.22c0,12.88,10.44,23.32,23.32,23.32h242.19c12.88,0,23.32-10.44,23.32-23.32v-194.22H111.95Z"/>
    <path class="cls-2" d="m380.24,196.26h-247.74c-3.23,0-5.84,2.62-5.84,5.84v175.81l79.84,29.16,49.88,5.74,119.55-21.58,10.17-13.32v-175.8c0-3.23-2.61-5.85-5.84-5.85h0Z"/>
    <path class="cls-3" d="m250.86,196.26h11.02v216.8h-11.02v-216.8Z"/>
    <path class="cls-3" d="m188.62,196.26l32.11,50.27v3.9c0,6.46,3.2,12.17,8.08,15.64v6.07c0,12.89,10.45,23.33,23.33,23.33h8.45c12.89,0,23.33-10.45,23.33-23.33v-6.07c4.89-3.47,8.08-9.19,8.08-15.64v-3.9l32.11-50.27h-135.5Z"/>
    <g>
      <g>
        <path class="cls-3" d="m157.52,384.11v-187.85h-25.02c-3.23,0-5.84,2.62-5.84,5.84v175.81l31.87,11.55c-.64-1.67-1-3.46-1-5.35Z"/>
        <g>
          <path class="cls-1" d="m256.73,412.82v.24h-121.46c-4.76,0-8.62-3.86-8.62-8.64v-26.64h95.09c19.33,0,35,15.68,35,35.03h0Z"/>
          <path class="cls-1" d="m386.08,377.79v26.64c0,4.77-3.86,8.64-8.62,8.64h-121.46v-.38c0-19.27,15.63-34.9,34.9-34.9h95.18Z"/>
        </g>
      </g>
      <path class="cls-8" d="m272.9,249.91h-33.07v22.25c0,6.79,5.5,12.29,12.29,12.29h8.49c6.79,0,12.29-5.5,12.29-12.29v-22.25Z"/>
      <path class="cls-7" d="m272.9,249.91h-33.07v22.62s5.58,12.29,12.37,12.66h8.54c4.76-.37,8.88-3.07,10.92-7.03-.47.06-1.44-.32-1.44-.32h-8.68c-5.24,0-9.69-3.36-11.32-8.04-.63-1.82.73-3.72,2.66-3.72h20.04v-16.17h0Z"/>
      <path class="cls-5" d="m329.5,146.19c0-40.89-33.3-73.97-74.17-73.4-38.97.54-70.82,32.05-72.05,71-.53,16.64,4.47,32.09,13.28,44.65l35.19,54.99v7.15c0,4.5,3.65,8.15,8.15,8.15h32.94c4.5,0,8.15-3.65,8.15-8.15v-7.15l35.19-54.99c8.39-11.95,13.32-26.52,13.32-42.25h0Z"/>
      <path class="cls-6" d="m227.38,197.8c-8.81-12.91-13.98-28.67-13.98-45.67,0-37.82,25.59-69.46,59.85-77.42-4.72-1.11-9.61-1.76-14.64-1.9-40.86-1.18-75.13,31.71-75.56,72.59-.17,16.03,4.8,30.89,13.37,43.04l35.32,54.99v7.15c0,4.5,3.65,8.15,8.15,8.15h20.98l-33.5-60.93Z"/>
    </g>
    <g>
      <path class="cls-4" d="m258.76,399.1c-1.77,4.22-2.76,8.85-2.76,13.72v.25h121.49c4.75,0,8.6-3.85,8.6-8.6v-5.37h-127.33Z"/>
      <path class="cls-4" d="m172.62,399.1c-8.34,0-15.1-6.76-15.1-15.1v-6.21h-30.87v26.64c0,4.77,3.88,8.64,8.66,8.64h121.42v-.25c0-4.87-.98-9.5-2.75-13.72h-81.36Z"/>
    </g>
  </g>
  <g>
    <path d="m414.21,205.08h-22.25v-8.18c0-3.19-2.59-5.78-5.78-5.78h-51.19c-.8,0-1.59.31-2.13.91-4.18,4.69-.94,10.11,3.58,10.11h44.17c.18,0,.33.15.33.33v67.52c0,2.62,1.74,5.03,4.31,5.58,3.57.76,6.71-1.96,6.71-5.42v-54.04h22.16c.75,0,1.35.61,1.35,1.35v192.54c0,12.65-10.26,22.91-22.91,22.91H119.43c-12.65,0-22.91-10.26-22.91-22.91v-192.54c0-.75.61-1.35,1.35-1.35h22.9v188.72c0,7.8,6.32,14.12,14.12,14.12h250.91c3.4,0,6.16-2.76,6.16-6.16v-121.04c0-.72-.3-1.41-.84-1.88-5.03-4.36-10.92-1.1-10.92,3.47v79.31h-89.03c-11.53,0-21.94,4.89-29.29,12.7v-71.1c0-2.82-2.03-5.35-4.83-5.69-3.35-.4-6.2,2.2-6.2,5.47v71.3c-7.36-7.8-17.79-12.69-29.34-12.69h-24.83c-2.82,0-5.35,2.03-5.69,4.83-.4,3.35,2.2,6.19,5.47,6.19h25.93c14.49,0,26.57,10.48,29.08,24.25h-115.87c-1.7,0-3.08-1.38-3.08-3.08v-21.18h40.41c2.82,0,5.35-2.03,5.69-4.83.4-3.35-2.2-6.19-5.47-6.19h-40.62v-170.41s-.12-.33.06-.1h44.23c3.05-.23,5.52-2.7,5.52-5.75s-2.47-5.52-5.52-5.27h-44.23c-6.27-.25-11.82,11.12-11.82,11.12v2.84h-22.88c-6.84,0-12.39,5.55-12.39,12.39v192.51c0,18.75,15.2,33.95,33.95,33.95h273.11c18.75,0,33.95-15.2,33.95-33.95v-192.52c0-6.83-5.51-12.39-12.29-12.39h0Zm-123.14,178.59h89.86v21.18c0,1.7-1.38,3.08-3.08,3.08h-115.86c2.51-13.77,14.59-24.25,29.08-24.25h0Z"/>
    <path d="m183.21,145.34c3.02.28,5.72-1.94,6-4.97,1.58-16.7,9.29-32.16,21.73-43.54,12.51-11.45,28.76-17.75,45.74-17.75,37.37,0,67.77,30.38,67.77,67.73,0,14.05-4.27,27.53-12.34,38.97-.05.06-.09.13-.13.2l-35.26,54.86c-.57.89-.87,1.92-.87,2.98v7.13c0,1.45-1.18,2.63-2.63,2.63h-.36l3.51-59.53h11.11c6.16,0,11.15-4.99,11.15-11.15v-10.59c0-3.19-1.3-6.27-3.67-8.4-13.02-11.67-28.14-2.47-28.88,11.02l-.41,7.36h-19.33l-.6-10.83c-.17-3.12-1.59-6.07-3.99-8.07-13.42-11.2-28.38-1.14-28.38,12.57v6.94c0,6.16,4.99,11.15,11.15,11.15l11.84-.73,3.51,59.63c-1.27-.19-2.25-1.27-2.25-2.59v-7.15c0-1.06-.3-2.09-.87-2.98l-35.28-54.99c-.04-.07-.09-.13-.13-.2-5.07-7.21-8.64-15.21-10.62-23.8-.77-3.35-4.45-5.28-7.75-3.75-2.38,1.11-3.55,3.85-2.95,6.41,2.29,9.88,6.41,19.1,12.24,27.4l34.34,53.53v5.86c0,5.57,3.33,10.37,8.08,12.5v9.33c0,9.84,7.98,17.81,17.81,17.81h8.47c9.84,0,17.81-7.98,17.81-17.81v-9.33c4.75-2.13,8.08-6.92,8.08-12.5v-5.25l34.33-53.4c9.35-13.29,14.29-28.93,14.29-45.22,0-43.42-35.35-78.74-78.8-78.74-19.74,0-38.63,7.33-53.18,20.64-14.46,13.22-23.43,31.2-25.26,50.63-.29,3.03,1.94,5.71,4.97,6h0Zm93.84,30.7c.19-3.22,3.24-5.63,6.59-4.81,2.37.58,3.96,2.83,3.96,5.27v.52c0,2.92-2.36,5.28-5.28,5.28h-5.64l.37-6.26Zm-52.66.98v-.47c0-2.64,1.85-5.02,4.46-5.41,3.14-.48,5.91,1.85,6.09,4.91l.37,6.26h-5.64c-2.92,0-5.28-2.36-5.28-5.28Zm40.71,17.04l-3.51,59.53h-11l-3.51-59.53h18.01Zm2.65,78.64c0,3.65-2.97,6.61-6.61,6.61h-8.66c-3.74,0-6.77-3.03-6.77-6.77v-7.93h22.05v8.08h0Z"/>
    <path d="m353.16,109.3c1.29,0,2.59-.45,3.64-1.37l12.04-10.57c2.29-2.01,2.52-5.5.51-7.79s-5.5-2.52-7.79-.51l-12.04,10.57c-2.29,2.01-2.52,5.5-.51,7.79,1.09,1.24,2.62,1.88,4.15,1.88h0Z"/>
    <path d="m349.51,142.59l12.04,10.58c1.05.92,2.35,1.37,3.64,1.37,1.53,0,3.06-.64,4.15-1.88,2.01-2.29,1.78-5.78-.51-7.79l-12.04-10.58c-2.29-2.01-5.78-1.78-7.79.51-2.01,2.29-1.79,5.78.5,7.79h0Z"/>
    <path d="m144.1,97.35l12.04,10.57c1.05.92,2.35,1.37,3.64,1.37,1.53,0,3.06-.64,4.15-1.88,2.01-2.29,1.78-5.78-.51-7.79l-12.04-10.57c-2.29-2.01-5.78-1.78-7.79.51-2.01,2.29-1.78,5.78.51,7.79Z"/>
    <path d="m147.74,154.53c1.29,0,2.59-.45,3.64-1.37l12.04-10.58c2.29-2.01,2.52-5.5.51-7.79-2.01-2.29-5.5-2.52-7.79-.51l-12.04,10.58c-2.29,2.01-2.52,5.5-.51,7.79,1.09,1.24,2.62,1.88,4.15,1.88Z"/>
    <path d="m201.86,253.58h-53.86c-2.82,0-5.35,2.03-5.69,4.83-.4,3.35,2.2,6.19,5.47,6.19h54.3c3.27,0,5.87-2.84,5.47-6.19-.34-2.8-2.86-4.83-5.69-4.83Z"/>
    <path d="m218.88,281.51h-60.92c-2.82,0-5.35,2.03-5.69,4.83-.4,3.35,2.2,6.19,5.47,6.19h60.92c2.82,0,5.35-2.03,5.69-4.83.4-3.35-2.2-6.19-5.47-6.19Z"/>
    <path d="m218.88,307.97h-60.92c-2.82,0-5.35,2.03-5.69,4.83-.4,3.35,2.2,6.19,5.47,6.19h60.92c2.82,0,5.35-2.03,5.69-4.83.4-3.35-2.2-6.19-5.47-6.19Z"/>
    <path d="m218.88,335.16h-60.92c-2.82,0-5.35,2.03-5.69,4.83-.4,3.35,2.2,6.19,5.47,6.19h60.92c2.82,0,5.35-2.03,5.69-4.83.4-3.35-2.2-6.19-5.47-6.19Z"/>
    <path d="m364.94,253.58h-53.86c-2.82,0-5.35,2.03-5.69,4.83-.4,3.35,2.2,6.19,5.47,6.19h54.3c3.27,0,5.87-2.84,5.47-6.19-.34-2.8-2.86-4.83-5.69-4.83Z"/>
    <path d="m355.18,281.51h-60.92c-2.82,0-5.35,2.03-5.69,4.83-.4,3.35,2.2,6.19,5.47,6.19h60.92c2.82,0,5.35-2.03,5.69-4.83.4-3.35-2.2-6.19-5.47-6.19Z"/>
    <path d="m355.18,307.97h-60.92c-2.82,0-5.35,2.03-5.69,4.83-.4,3.35,2.2,6.19,5.47,6.19h60.92c2.82,0,5.35-2.03,5.69-4.83.4-3.35-2.2-6.19-5.47-6.19Z"/>
    <path d="m355.18,335.16h-60.92c-2.82,0-5.35,2.03-5.69,4.83-.4,3.35,2.2,6.19,5.47,6.19h60.92c2.82,0,5.35-2.03,5.69-4.83.4-3.35-2.2-6.19-5.47-6.19Z"/>
  </g>
</svg>