<?xml version="1.0" encoding="UTF-8"?>
<svg id="Layer_1" data-name="Layer 1" xmlns="http://www.w3.org/2000/svg" viewBox="0 0 512 512">
  <defs>
    <style>
      .cls-1 {
        fill: #0067c5;
      }

      .cls-2 {
        fill: #fe9738;
      }

      .cls-3 {
        fill: #ffd15b;
      }

      .cls-4 {
        fill: #ffc344;
      }

      .cls-5 {
        fill: #fe860a;
      }

      .cls-6 {
        fill: #3ec3a4;
      }

      .cls-7 {
        fill: #0573ce;
      }

      .cls-8 {
        fill: #6fd7a3;
      }
    </style>
  </defs>
  <g>
    <g>
      <g>
        <path class="cls-2" d="m185.35,339.41c-9.91,4.32-21.44-.21-25.76-10.11l-3.32-7.61c-7.72-17.71-3.48-38.41,10.56-51.51,10.56-9.86,13.22-25.71,6.47-38.55-7.39-14.06-24.24-20.6-39.18-15.21-15.81,5.69-24.67,22.76-20.17,38.85.4,1.44.91,2.87,1.52,4.25,4.32,9.91-.21,21.44-10.11,25.76-9.91,4.32-21.44-.21-25.76-10.11-1.32-3.04-2.45-6.19-3.33-9.36-9.99-35.73,9.6-73.61,44.59-86.21,33.22-11.97,70.67,2.57,87.1,33.82,14.93,28.41,9.01,63.51-14.4,85.37-1.94,1.81-2.5,4.72-1.39,7.26l3.32,7.61c4.32,9.91-.21,21.44-10.12,25.76Z"/>
        <path class="cls-3" d="m208.63,392.78c-9.91,4.32-21.44-.21-25.76-10.11l-.06-.15c-4.32-9.91.21-21.44,10.11-25.76,9.91-4.32,21.44.21,25.76,10.11l.06.15c4.32,9.91-.21,21.44-10.11,25.76Z"/>
      </g>
      <g>
        <g>
          <path class="cls-5" d="m92.1,258.88c.88,3.18,2.01,6.32,3.34,9.36,3.08,7.06,9.82,11.39,17.03,11.73-1.88,2.23-4.28,4.06-7.12,5.3-9.9,4.32-21.44-.21-25.76-10.11-1.32-3.04-2.44-6.19-3.33-9.36-10-35.74,9.59-73.61,44.59-86.22,1.25-.45,2.51-.86,3.78-1.23-27.26,16.11-41.29,49.15-32.52,80.54h0Z"/>
          <path class="cls-5" d="m182.68,263.25c-14.03,13.11-18.28,33.81-10.56,51.52l3.32,7.61c3.08,7.06,9.83,11.39,17.04,11.72-1.88,2.23-4.28,4.06-7.12,5.3-9.91,4.32-21.44-.21-25.76-10.11l-3.32-7.61c-7.72-17.71-3.48-38.41,10.56-51.52,10.55-9.86,13.21-25.7,6.46-38.54-6.34-12.08-19.66-18.61-32.77-16.79,2.76-2.26,5.93-4.08,9.44-5.34,14.95-5.39,31.79,1.15,39.18,15.21,6.75,12.84,4.09,28.69-6.47,38.55Z"/>
        </g>
        <path class="cls-4" d="m215.75,387.48c-1.88,2.23-4.28,4.06-7.12,5.3-9.91,4.32-21.44-.21-25.76-10.11l-.07-.15c-4.32-9.9.21-21.44,10.11-25.76,2.85-1.24,5.83-1.75,8.73-1.61-4.65,5.52-6.07,13.41-3,20.46l.07.15c3.08,7.06,9.83,11.39,17.04,11.72h0Z"/>
      </g>
    </g>
    <g>
      <g>
        <path class="cls-8" d="m341.45,337.5c-10.44-2.8-16.64-13.53-13.84-23.97l2.15-8.02c5-18.66,21.22-32.2,40.37-33.7,14.4-1.13,26.36-11.86,29.09-26.11,2.98-15.6-6.11-31.22-21.15-36.32-15.91-5.41-33.48,2.42-39.99,17.81-.58,1.38-1.08,2.81-1.47,4.27-2.8,10.44-13.53,16.64-23.97,13.84-10.44-2.8-16.64-13.53-13.84-23.97.86-3.2,1.94-6.36,3.23-9.4,14.46-34.17,53.39-51.57,88.61-39.61,33.44,11.35,53.65,46.06,47.02,80.74-6.03,31.52-32.55,55.28-64.48,57.78-2.64.21-4.9,2.14-5.61,4.81l-2.15,8.02c-2.8,10.44-13.53,16.64-23.97,13.84h0Z"/>
        <path class="cls-8" d="m326.38,393.75c-10.44-2.8-16.64-13.53-13.84-23.97l.04-.16c2.8-10.44,13.53-16.64,23.97-13.84,10.44,2.8,16.64,13.53,13.84,23.97l-.04.16c-2.8,10.44-13.53,16.64-23.97,13.84Z"/>
      </g>
      <g>
        <g>
          <path class="cls-6" d="m318.74,216.41c-1.29,3.03-2.37,6.2-3.23,9.4-1.99,7.44.58,15.03,6,19.78-2.85.57-5.87.51-8.88-.29-10.43-2.8-16.64-13.52-13.84-23.97.86-3.2,1.95-6.36,3.24-9.39,14.46-34.18,53.39-51.57,88.61-39.62,1.26.43,2.5.89,3.73,1.39-31.36-4.4-62.93,12.69-75.63,42.7h0Z"/>
          <path class="cls-6" d="m386.84,276.29c-19.14,1.5-35.37,15.04-40.37,33.7l-2.15,8.02c-1.99,7.44.59,15.03,6.01,19.79-2.86.57-5.87.51-8.88-.29-10.44-2.8-16.64-13.53-13.84-23.97l2.15-8.02c5-18.66,21.22-32.2,40.37-33.7,14.4-1.13,26.35-11.86,29.08-26.11,2.57-13.4-3.78-26.81-15.16-33.55,3.56-.05,7.18.51,10.72,1.71,15.05,5.1,24.14,20.72,21.15,36.32-2.72,14.25-14.69,24.98-29.09,26.11Z"/>
        </g>
        <path class="cls-6" d="m335.26,394.04c-2.86.57-5.87.51-8.88-.29-10.44-2.8-16.64-13.52-13.84-23.97l.04-.16c2.8-10.43,13.52-16.64,23.97-13.84,3,.8,5.65,2.26,7.83,4.18-7.08,1.41-13.11,6.7-15.1,14.13l-.04.16c-1.99,7.44.59,15.03,6.01,19.79h0Z"/>
      </g>
    </g>
    <g>
      <g>
        <path class="cls-7" d="m265.18,311.83c-12.18,0-22.05-9.87-22.05-22.05v-9.35c0-21.76,13.7-41.23,34.1-48.44,15.34-5.43,25.23-20.6,24.04-36.9-1.3-17.85-15.75-32.19-33.61-33.36-18.89-1.25-35.73,12.4-38.33,31.04-.23,1.67-.35,3.37-.35,5.08,0,13.21-11.62,23.71-25.19,21.83-10.51-1.45-18.97-11.73-18.9-22.35.02-3.56.28-7.14.77-10.65,5.78-41.4,43.06-71.69,84.88-68.95,39.7,2.6,71.82,34.48,74.71,74.16,2.63,36.06-19.3,69.65-53.32,81.68-2.81.99-4.7,3.75-4.7,6.87v9.35c0,12.18-9.87,22.05-22.05,22.05h0Z"/>
        <path class="cls-7" d="m265.18,376.95c-12.18,0-22.05-9.87-22.05-22.05v-.18c0-12.18,9.87-22.05,22.05-22.05s22.05,9.87,22.05,22.05v.18c0,12.18-9.87,22.05-22.05,22.05Z"/>
      </g>
      <g>
        <g>
          <path class="cls-1" d="m205.23,186.77c-.52,3.67-.77,7.41-.77,11.13,0,8.65,4.99,16.13,12.26,19.71-2.93,1.45-6.22,2.26-9.71,2.26-12.13,0-21.97-9.83-21.97-21.97,0-3.72.26-7.46.78-11.13,5.75-41.27,42.91-71.45,84.58-68.71,1.49.1,2.97.24,4.45.43-35.29,4.35-64.56,32.05-69.62,68.29h0Z"/>
          <path class="cls-1" d="m295.69,231.93c-20.01,7.19-33.45,26.59-33.45,48.28v9.32c0,8.65,4.93,16.13,12.08,19.71-3.24,1.63-6.94,2.45-10.85,2.22-11.5-.68-20.33-10.53-20.33-22.05v-9.2c0-21.69,13.44-41.09,33.45-48.28,15.05-5.41,24.74-20.52,23.57-36.77-1.09-15.28-11.7-27.98-25.77-31.98,3.79-1.09,7.81-1.54,11.93-1.26,17.52,1.16,31.69,15.45,32.97,33.24,1.17,16.24-8.53,31.36-23.58,36.77h0Z"/>
        </g>
        <path class="cls-1" d="m274.31,374.3c-2.88,1.43-6.12,2.23-9.56,2.23-11.95,0-21.63-9.68-21.63-21.63v-.18c0-11.94,9.68-21.63,21.63-21.63,3.44,0,6.68.8,9.56,2.23-7.15,3.53-12.08,10.9-12.08,19.4v.18c0,8.51,4.93,15.88,12.08,19.4Z"/>
      </g>
    </g>
  </g>
  <g>
    <path d="m223.73,364.67c-2.68-6.14-7.59-10.87-13.82-13.32-6.24-2.45-13.05-2.32-19.19.36-6.14,2.68-10.87,7.59-13.32,13.82-2.45,6.24-2.32,13.05.35,19.19l.07.15c2.68,6.14,7.59,10.87,13.83,13.32,2.97,1.17,6.07,1.75,9.17,1.75,3.41,0,6.81-.7,10.02-2.1,6.14-2.68,10.87-7.59,13.32-13.82,2.45-6.24,2.32-13.05-.35-19.19l-.07-.15Zm-9.84,15.31c-1.37,3.5-4.02,6.25-7.47,7.75-3.44,1.5-7.26,1.57-10.76.2-3.5-1.37-6.25-4.02-7.75-7.46l-.07-.15c-1.5-3.44-1.57-7.26-.2-10.76,1.37-3.5,4.02-6.25,7.47-7.75,1.8-.79,3.71-1.18,5.62-1.18,1.74,0,3.48.33,5.14.98,3.5,1.37,6.25,4.02,7.75,7.46l.07.15c1.5,3.44,1.57,7.26.2,10.76Z"/>
    <path d="m429.81,194.44c-2.04-2.8-6.21-3.12-8.65-.37-1.73,1.95-1.71,4.9-.18,7.01,10.68,14.74,14.87,33.32,11.48,51-5.58,29.17-30.12,51.16-59.66,53.46-4.97.39-9.2,3.96-10.53,8.9l-2.15,8.04c-.98,3.64-3.31,6.68-6.57,8.56-3.26,1.88-7.06,2.38-10.7,1.41-3.64-.97-6.68-3.3-8.56-6.57-1.88-3.26-2.38-7.06-1.41-10.7l2.15-8.05c4.41-16.45,18.7-28.38,35.57-29.7,16.92-1.32,30.97-13.92,34.17-30.65,3.51-18.34-7.19-36.7-24.87-42.7-9.96-3.39-20.78-2.31-29.8,2.4.51-4.93.61-9.96.24-15.03-.36-4.95-1.15-9.78-2.33-14.47,13.35-4.19,27.72-4.09,40.96.4,5.18,1.76,10.14,4.17,14.72,7.17.93.61,1.98.9,3.02.9,2.15,0,4.25-1.25,5.16-3.52.98-2.45-.04-5.27-2.26-6.71-5.33-3.47-11.08-6.27-17.1-8.31-15.49-5.26-32.28-5.37-47.89-.46-11.9-30.12-40.45-52.02-74.1-54.23-42.35-2.78-80.35,26.17-89.43,66.9-19.23-10.44-42.12-12.34-62.78-4.9-37.81,13.62-58.96,54.54-48.17,93.13.94,3.4,2.15,6.8,3.6,10.12,3.25,7.45,9.77,12.83,17.96,14.59,3.65.79,7.46.72,11.08-.21,8.12-2.06,14.44-7.68,17.42-15.25,2.45-6.25,2.33-13.09-.36-19.24-.5-1.14-.92-2.33-1.26-3.54-3.74-13.37,3.63-27.55,16.77-32.28,12.41-4.47,26.39.96,32.53,12.63,5.61,10.68,3.4,23.85-5.37,32.04-15.79,14.74-20.56,38.01-11.87,57.9l3.33,7.63c4.12,9.45,13.39,15.1,23.1,15.1,3.35,0,6.75-.67,10.01-2.09,6.16-2.69,10.9-7.61,13.36-13.86,2.45-6.25,2.33-13.09-.36-19.24l-3.33-7.64c-.18-.42-.1-.85.1-1.03,2.26-2.12,4.41-4.39,6.39-6.74,1.68-2.01,1.85-4.97.23-7.02-2.26-2.87-6.42-2.81-8.63-.16-1.71,2.05-3.57,4.02-5.53,5.85-3.65,3.4-4.74,8.84-2.69,13.52l3.33,7.64c1.51,3.45,1.58,7.28.2,10.78-1.38,3.51-4.04,6.27-7.48,7.77-7.13,3.1-15.45-.17-18.56-7.29l-3.33-7.63c-6.81-15.61-3.08-33.85,9.28-45.4,12.4-11.58,15.53-30.2,7.61-45.27-8.69-16.53-28.49-24.22-46.06-17.88-18.56,6.68-28.96,26.73-23.67,45.67.48,1.71,1.08,3.38,1.78,4.99.87,1.99,1.35,4.14,1.19,6.3-.48,6.68-5.04,11.84-11.43,13.17-1.66.34-3.37.36-5.04.06-4.83-.87-8.69-3.95-10.58-8.28-1.24-2.84-2.28-5.76-3.08-8.67-9.25-33.06,8.88-68.1,41.26-79.77,18.95-6.82,40.12-4.46,57.27,6.26-.18,2.3-.29,4.61-.29,6.92,0,15.2,12.36,27.56,27.56,27.56.03,0,.05,0,.08,0,4.7,13.83,4.71,28.89-.08,42.84-.85,2.47.02,5.3,2.25,6.64.94.57,1.95.83,2.92.83,2.29,0,4.43-1.44,5.22-3.72,5.49-15.89,5.65-33.02.57-48.87,9.75-4.25,16.59-13.98,16.59-25.28,0-1.45.1-2.9.3-4.31,2.2-15.78,16.47-27.32,32.46-26.26,15.11.99,27.34,13.12,28.44,28.22,1.01,13.81-7.36,26.66-20.35,31.26-22.59,7.99-37.76,29.53-37.76,53.62v8.96c0,13.72,9.89,25.68,23.47,27.65,17.01,2.46,31.65-10.72,31.65-27.26v-9.35c0-.76.42-1.44,1.02-1.65,25.93-9.17,45.27-30.06,53.21-55.26,6.92-8.87,19.02-12.52,29.75-8.88,12.49,4.24,20.04,17.2,17.57,30.16-2.27,11.85-12.21,20.77-24.17,21.71-21.53,1.69-39.76,16.9-45.38,37.87l-2.15,8.04c-1.74,6.49-.85,13.27,2.51,19.09,3.36,5.82,8.79,9.98,15.27,11.72,2.17.58,4.37.87,6.55.87,4.36,0,8.66-1.14,12.53-3.38,5.82-3.36,9.98-8.78,11.72-15.28l2.15-8.03c.12-.46.46-.73.72-.75,34.5-2.69,63.14-28.35,69.66-62.41,3.97-20.73-.96-42.5-13.51-59.73h0Zm-140.06,73.98c-5.03,1.78-8.4,6.64-8.4,12.1v9.09c0,7.89-5.42,14.92-13.15,16.47-10.59,2.11-19.92-5.97-19.92-16.2v-9.36c0-19.45,12.24-36.84,30.45-43.28,17.71-6.26,29.12-23.76,27.75-42.56-1.5-20.61-18.19-37.17-38.81-38.52-.93-.06-1.85-.09-2.76-.09-20.65,0-38.58,15.31-41.46,35.92-.27,1.9-.4,3.85-.4,5.79-.01,8.32-6.3,15.52-14.57,16.48-10,1.16-18.51-6.66-18.51-16.42,0-3.48.24-6.98.72-10.42,5.39-38.6,40.14-66.82,79.13-64.27,37,2.42,66.94,32.14,69.64,69.12,2.45,33.62-17.99,64.93-49.71,76.15h0Z"/>
    <path d="m337.98,350.46c-6.47-1.73-13.23-.84-19.03,2.51s-9.95,8.76-11.68,15.22l-.05.17c-3.58,13.36,4.38,27.14,17.74,30.72,2.17.58,4.34.86,6.49.86,11.07,0,21.24-7.4,24.24-18.6l.04-.15c1.73-6.47.84-13.23-2.5-19.03-3.35-5.8-8.76-9.95-15.23-11.69h0Zm7.08,27.88l-.04.15c-2.01,7.49-9.73,11.95-17.22,9.94-7.49-2.01-11.95-9.73-9.94-17.2l.05-.17c.97-3.63,3.3-6.66,6.55-8.54,3.25-1.88,7.04-2.38,10.67-1.4,3.63.97,6.66,3.3,8.54,6.55,1.88,3.25,2.38,7.04,1.4,10.68h0Z"/>
    <path d="m264.81,327.16c-15.2,0-27.56,12.36-27.56,27.56v.18c0,15.2,12.36,27.56,27.56,27.56s27.56-12.36,27.56-27.56v-.18c0-15.2-12.36-27.56-27.56-27.56Zm16.54,27.74c0,9.12-7.42,16.54-16.54,16.54s-16.54-7.42-16.54-16.54v-.18c0-9.12,7.42-16.54,16.54-16.54s16.54,7.42,16.54,16.54v.18Z"/>
  </g>
</svg>